<svg width="24" height="24" viewBox="0 0 24 24" fill="none" xmlns="http://www.w3.org/2000/svg">
<g id="Frame">
<path id="Union" fill-rule="evenodd" clip-rule="evenodd" d="M17.4386 7.68349C17.816 7.2803 17.7952 6.64748 17.392 6.27004C16.9888 5.8926 16.356 5.91346 15.9785 6.31664L11.8541 10.7224L7.73003 6.31709C7.35259 5.91391 6.71976 5.89305 6.31658 6.27049C5.9134 6.64793 5.89254 7.28075 6.26998 7.68393L10.2938 11.9821L6.26998 16.2803C5.89254 16.6835 5.9134 17.3163 6.31658 17.6938C6.71976 18.0712 7.35258 18.0503 7.73003 17.6472L11.8545 13.2415L15.9785 17.6467C16.356 18.0499 16.9888 18.0708 17.392 17.6933C17.7952 17.3159 17.816 16.6831 17.4386 16.2799L13.4148 11.9817L17.4386 7.68349Z" fill="#212121"/>
</g>
</svg>
